<svg width="121" height="60" viewBox="0 0 121 60" fill="none" xmlns="http://www.w3.org/2000/svg">
<path d="M53.8867 43.5977C52.819 44.1966 51.5039 44.6914 49.9414 45.082C48.3919 45.4596 46.4583 45.7396 44.1406 45.9219C41.8359 46.1042 39.0169 46.1953 35.6836 46.1953L31.1133 21.7617H36.6406L38.7695 33.4414L40.1953 33.168C41.0807 32.9987 41.7318 32.7122 42.1484 32.3086C42.5781 31.8919 42.9036 31.2734 43.125 30.4531C43.2292 30.0495 43.3268 29.4896 43.418 28.7734C43.5221 28.0443 43.6198 27.1589 43.7109 26.1172L44.0039 21.7617H49.3945L48.8086 28.4414C48.7305 29.3529 48.6198 30.1732 48.4766 30.9023C48.3333 31.6315 48.151 32.263 47.9297 32.7969C47.5 33.8646 46.8945 34.6979 46.1133 35.2969C45.3451 35.8958 44.1211 36.3971 42.4414 36.8008L39.5117 37.4844L40.3125 41.4883H40.7812C42.4089 41.4883 43.8477 41.4232 45.0977 41.293C46.3607 41.1497 47.4349 40.9349 48.3203 40.6484C49.5052 40.2839 50.4818 39.776 51.25 39.125C52.0182 38.4609 52.6237 37.582 53.0664 36.4883C53.5091 35.3815 53.8216 33.9818 54.0039 32.2891L55.2344 21.7617H60.6836L59.4336 32.1523C59.1732 34.3919 58.8086 36.2474 58.3398 37.7188C57.8841 39.1901 57.2917 40.388 56.5625 41.3125C55.8464 42.224 54.9544 42.9857 53.8867 43.5977ZM70.8984 21.7617V34.6328H65.625V21.7617H70.8984ZM88.3398 31.3125V46H75.7031V41.2734H83.0664V32.3281C83.0664 30.5703 82.9492 29.3138 82.7148 28.5586C82.4805 27.8164 82.0898 27.2891 81.543 26.9766C80.9961 26.651 80.1953 26.4883 79.1406 26.4883H76.8164V21.7617H80.1367C82.3763 21.7617 84.0495 22.0612 85.1562 22.6602C86.263 23.2591 87.0703 24.2422 87.5781 25.6094C88.0859 26.9766 88.3398 28.8776 88.3398 31.3125ZM107.891 21.6445C111.211 21.6445 113.626 22.6211 115.137 24.5742C116.647 26.5143 117.402 29.5482 117.402 33.6758V46H104.805V41.2734H112.09V34.0859C112.09 31.3385 111.758 29.3724 111.094 28.1875C110.443 26.9896 109.29 26.3906 107.637 26.3906C106.113 26.3906 104.831 27.1523 103.789 28.6758C102.747 30.2383 101.777 32.8424 100.879 36.4883L98.5156 46H92.8906L95.5273 35.8828C95.8529 34.6589 96.1654 33.5651 96.4648 32.6016C96.7773 31.638 97.0768 30.8112 97.3633 30.1211L92.5195 22.0352H98.3594L100.195 25.4727C100.977 24.2747 102.044 23.3372 103.398 22.6602C104.766 21.9831 106.263 21.6445 107.891 21.6445Z" fill="#101010"/>
<path d="M27.0562 47.2137V47.445C26.5937 48.1233 26.0233 48.4625 25.345 48.4625C24.8208 48.4625 24.3737 48.2312 24.0038 47.7688C23.7262 46.6588 21.6758 44.855 17.8525 42.3575C14.06 39.86 11.5471 38.6113 10.3138 38.6113C10.0979 38.6113 9.82042 38.6113 9.48125 38.6113C9.04958 38.6421 8.75667 38.6575 8.6025 38.6575V40.4613C8.6025 41.0779 8.67958 41.895 8.83375 42.9125C8.98792 44.1458 9.1575 44.9013 9.3425 45.1787C9.8975 45.9187 10.175 46.3812 10.175 46.5662C10.175 47.1213 9.95917 47.5838 9.5275 47.9538C9.09583 48.2929 8.6025 48.4625 8.0475 48.4625C6.87583 48.4625 5.96625 48.0462 5.31875 47.2137C4.70208 46.4738 4.39375 43.4213 4.39375 38.0563C3.74625 38.0563 3.06792 37.8558 2.35875 37.455C1.55708 36.9617 1.15625 36.4375 1.15625 35.8825C1.15625 34.7417 2.18917 33.9246 4.255 33.4313C4.37833 32.4754 4.48625 31.165 4.57875 29.5C4.64042 27.6192 4.7175 26.3087 4.81 25.5688C4.995 24.5821 5.22625 23.1021 5.50375 21.1288H5.13375C3.90042 21.1596 3.28375 20.62 3.28375 19.51C3.28375 18.5542 3.65375 17.9529 4.39375 17.7063C4.91792 17.5521 5.44208 17.3979 5.96625 17.2438C6.58292 16.6888 7.06083 16.3342 7.4 16.18C7.77 15.995 8.34042 15.9025 9.11125 15.9025C9.66625 15.9025 9.94375 16.1492 9.94375 16.6425C9.94375 16.7967 10.3292 16.8737 11.1 16.8737C14.7075 16.8737 17.7754 17.5983 20.3037 19.0475C23.4179 20.805 24.975 23.3487 24.975 26.6787C24.975 29.2379 24.1733 31.35 22.57 33.015C21.4908 34.1558 19.5792 35.4354 16.835 36.8538C19.0242 38.2413 21.1979 39.6288 23.3562 41.0163C25.8537 42.8971 27.0871 44.9629 27.0562 47.2137ZM20.72 26.4937C20.72 24.5204 19.7179 23.025 17.7137 22.0075C16.1104 21.175 14.2296 20.7588 12.0712 20.7588C11.7937 20.7588 11.1308 20.805 10.0825 20.8975C10.1133 22.0075 9.82042 23.9192 9.20375 26.6325C8.86458 28.2667 8.63333 30.6563 8.51 33.8013C10.2983 34.4179 11.4083 34.7263 11.84 34.7263C12.21 34.7263 12.7496 34.6183 13.4587 34.4025C15.4937 33.7858 17.1587 32.8454 18.4538 31.5813C19.9646 30.1321 20.72 28.4362 20.72 26.4937Z" fill="#101010"/>
</svg>
